<svg width="14" height="14" viewBox="0 0 14 14" fill="none" xmlns="http://www.w3.org/2000/svg">
  <path d="M7.05834 10.8208L7.00001 10.8792L6.93584 10.8208C4.16501 8.30667 2.33334 6.64417 2.33334 4.95833C2.33334 3.79167 3.20834 2.91667 4.37501 2.91667C5.27334 2.91667 6.14834 3.5 6.45751 4.29333H7.54251C7.85167 3.5 8.72667 2.91667 9.62501 2.91667C10.7917 2.91667 11.6667 3.79167 11.6667 4.95833C11.6667 6.64417 9.83501 8.30667 7.05834 10.8208ZM9.62501 1.75C8.61001 1.75 7.63584 2.2225 7.00001 2.96333C6.36417 2.2225 5.39001 1.75 4.37501 1.75C2.57834 1.75 1.16667 3.15583 1.16667 4.95833C1.16667 7.1575 3.15001 8.96 6.15417 11.6842L7.00001 12.4542L7.84584 11.6842C10.85 8.96 12.8333 7.1575 12.8333 4.95833C12.8333 3.15583 11.4217 1.75 9.62501 1.75Z" fill="black" fill-opacity="0.8"/>
</svg>
