<svg width="9" height="8" viewBox="0 0 9 8" fill="none" xmlns="http://www.w3.org/2000/svg">
  <path d="M4.21927 1.7919V1.80224C4.21921 2.00432 4.18315 2.2049 4.11265 2.39524L4.11681 2.3829C4.04765 2.56812 3.93095 2.73347 3.77758 2.86357L3.77619 2.86457C3.63046 2.9909 3.43662 3.0679 3.22408 3.0679H3.20746H3.20815C2.92784 3.06589 2.65948 2.95833 2.46046 2.76824C2.24324 2.5764 2.0743 2.3394 1.9665 2.07524L1.962 2.06257C1.85773 1.81288 1.80267 1.54668 1.79965 1.27757V1.2659C1.79965 1.0579 1.83738 0.858237 1.90627 0.672904L1.90212 0.685237C1.97128 0.500025 2.08797 0.334672 2.24135 0.20457L2.24273 0.20357C2.39916 0.0680391 2.60352 -0.00471317 2.81388 0.000237004H2.81285C3.09331 0.00153556 3.36194 0.109201 3.56054 0.299904C3.77549 0.491809 3.94299 0.727715 4.05069 0.990237L4.05519 1.0029C4.15523 1.23624 4.21442 1.50724 4.21754 1.7909V1.7919H4.21927ZM2.36908 4.3079L2.36942 4.3359C2.36984 4.58657 2.2894 4.83116 2.13923 5.0359L2.142 5.0319C2.07352 5.1269 1.98219 5.20453 1.8758 5.25816C1.76941 5.31179 1.65112 5.33984 1.53104 5.3399L1.49677 5.33924H1.4985C1.2148 5.33611 0.942134 5.23293 0.732115 5.04924L0.733154 5.05024C0.509756 4.86606 0.329072 4.63871 0.202826 4.38293C0.0765797 4.12716 0.00759417 3.84868 0.000346154 3.56557V3.5629L0 3.53557C0 3.2739 0.0851538 3.03124 0.230192 2.83224L0.227423 2.83624C0.298646 2.73592 0.395303 2.65479 0.508224 2.60053C0.621146 2.54628 0.746589 2.52071 0.872654 2.52624H0.870923C1.15462 2.52937 1.42729 2.63254 1.63731 2.81624L1.63627 2.81524C1.85981 3.00067 2.04052 3.22915 2.16674 3.48596C2.29296 3.74277 2.36188 4.0222 2.36908 4.30624V4.30857V4.3079ZM4.50173 4.16724C5.00706 4.194 5.49101 4.37246 5.88565 4.67757L5.88081 4.6739C6.3639 5.00401 6.78005 5.41661 7.10862 5.89124L7.11969 5.90824C7.41593 6.29163 7.5891 6.75016 7.61781 7.22724L7.61815 7.2339L7.61885 7.2629C7.61885 7.39757 7.58458 7.5249 7.524 7.63657L7.52608 7.63224C7.468 7.73466 7.37721 7.81636 7.26715 7.86524L7.26369 7.86657C7.16296 7.9129 7.04562 7.94924 6.92308 7.96957L6.91477 7.97057C6.787 7.99004 6.65782 7.99963 6.52846 7.99924H6.5025H6.50388C6.14725 7.9763 5.79738 7.89444 5.46958 7.75724L5.48965 7.7649C5.18017 7.63487 4.85019 7.55588 4.5135 7.53124L4.50277 7.53057C4.12096 7.5579 3.76719 7.64057 3.43835 7.77024L3.46154 7.76224C3.11856 7.89464 2.75561 7.97276 2.38673 7.99357L2.37704 7.9939C1.71565 7.99435 1.38496 7.74113 1.38496 7.23424C1.39997 6.87906 1.50604 6.53299 1.69373 6.2269L1.68785 6.2369C1.89052 5.87024 2.14494 5.53237 2.44385 5.2329L2.44246 5.23424C2.73487 4.94036 3.06913 4.68796 3.43523 4.48457L3.45669 4.47357C3.76942 4.28561 4.1278 4.17977 4.49619 4.16657H4.50035L4.50173 4.16724ZM5.79462 3.06824H5.77869C5.57454 3.06854 5.37754 2.99585 5.22588 2.86424L5.22658 2.8649C5.0741 2.737 4.95786 2.5739 4.88873 2.3909L4.88596 2.3829C4.81754 2.19641 4.78277 2.00002 4.78315 1.80224V1.79124V1.7919C4.78627 1.5069 4.84546 1.23624 4.95104 0.988237L4.9455 1.0029C5.05303 0.73609 5.22177 0.496117 5.43912 0.300904L5.4405 0.299904C5.63907 0.109404 5.90756 0.00186782 6.18785 0.000570337H6.20412C6.41665 0.000570337 6.6105 0.0779037 6.75692 0.20457L6.75623 0.203904C6.90785 0.33157 7.02485 0.49357 7.09408 0.677904L7.09685 0.685904C7.16296 0.859904 7.20104 1.0609 7.20104 1.27024V1.2769V1.27657C7.19834 1.55141 7.14137 1.82324 7.03315 2.07757L7.03869 2.0629C6.93157 2.33143 6.76145 2.57248 6.54162 2.76724L6.54023 2.76857C6.34113 2.95822 6.07293 3.0654 5.79288 3.06724H5.79254L5.79462 3.06824ZM8.13115 2.5269L8.163 2.52624C8.41604 2.52624 8.63931 2.64824 8.77292 2.83457L8.77465 2.8369C8.92336 3.04206 9.00278 3.28638 9.00208 3.53657L9.00173 3.56524V3.5639C8.99483 3.84681 8.92627 4.12516 8.80051 4.38092C8.67475 4.63669 8.49458 4.86415 8.27169 5.04857L8.26892 5.0509C8.05937 5.23412 7.7873 5.33695 7.50427 5.3399H7.50358C7.37856 5.34541 7.25413 5.32032 7.14191 5.26699C7.02968 5.21365 6.93332 5.13381 6.86181 5.0349L6.86008 5.03257C6.70504 4.82075 6.62537 4.56628 6.633 4.30724V4.30857C6.6398 4.02468 6.70827 3.74531 6.83401 3.48845C6.95975 3.2316 7.13996 3.00295 7.36304 2.81724L7.36581 2.8149C7.57528 2.6325 7.84668 2.52997 8.12908 2.52657H8.12977L8.13115 2.5269Z" fill="#F97389"/>
</svg>
